torrent name

Sin Nombre (2009) 720p BRrip_sujaidr

video details
ID                               : 1
Format                           : AVC
Format/Info                      : Advanced Video Codec
Format profile                   : High@L4.1
Format settings, CABAC           : Yes
Format settings, ReFrames        : 4 frames
Muxing mode                      : Header stripping
Codec ID                         : V_MPEG4/ISO/AVC
Duration                         : 1h 35mn
Bit rate                         : 890 Kbps
Width                            : 1 280 pixels
Height                           : 546 pixels
Display aspect ratio             : 2.35:1
Frame rate                       : 23.976 fps
Color space                      : YUV
Chroma subsampling               : 4:2:0
Bit depth                        : 8 bits
Scan type                        : Progressive
Bits/(Pixel*Frame)               : 0.053
Stream size                      : 595 MiB (85%)

audio details
ID                               : 2
Format                           : AC-3
Format/Info                      : Audio Coding 3
Mode extension                   : CM (complete main)
Muxing mode                      : Header stripping
Codec ID                         : A_AC3
Duration                         : 1h 35mn
Bit rate mode                    : Constant
Bit rate                         : 128 Kbps
Channel(s)                       : 6 channels
Channel positions                : Front: L C R, Side: L R, LFE
Sampling rate                    : 48.0 KHz
Bit depth                        : 16 bits
Compression mode                 : Lossy
Stream size                      : 87.6 MiB (13%)

language                          Spanish

subtitle                          English muxed

SAMPLE                  :INCLUDED

PLOT:Honduran teenager Sayra reunites with her father, an opportunity for her to potentially realize her dream of a life in the U.S. Moving to Mexico is the first step in a fateful journey of unexpected events.

Director:Cary Fukunaga
Stars:    Paulina Gaitan, Marco Antonio Aguirre and Leonardo Alonso
imdb:  http://www.imdb.com/title/tt1127715/

screenshots

                http://img215.imageshack.us/img215/3953/vlcsnap2012032001h43m01.png

                http://img441.imageshack.us/img441/1441/vlcsnap2012032001h44m05.png

                http://img811.imageshack.us/img811/5756/vlcsnap2012032001h45m24.png

                http://img832.imageshack.us/img832/5844/vlcsnap2012032001h45m39.png